<?xml version="1.0" standalone="no"?>
<!DOCTYPE svg PUBLIC "-//W3C//DTD SVG 20010904//EN"
 "http://www.w3.org/TR/2001/REC-SVG-20010904/DTD/svg10.dtd">
<svg version="1.0" xmlns="http://www.w3.org/2000/svg"
 width="142.000000pt" height="100.000000pt" viewBox="0 0 142.000000 100.000000"
 preserveAspectRatio="xMidYMid meet">

<g transform="translate(0.000000,100.000000) scale(0.100000,-0.100000)"
fill="#000000" stroke="none">
<path d="M20 980 c-31 -31 -28 -102 6 -129 26 -21 34 -21 684 -21 650 0 658 0
684 21 34 27 37 98 6 129 -20 20 -33 20 -690 20 -657 0 -670 0 -690 -20z"/>
<path d="M26 549 c-34 -27 -37 -98 -6 -129 20 -20 33 -20 690 -20 657 0 670 0
690 20 31 31 28 102 -6 129 -26 21 -34 21 -684 21 -650 0 -658 0 -684 -21z"/>
<path d="M26 149 c-34 -27 -37 -98 -6 -129 20 -20 33 -20 690 -20 657 0 670 0
690 20 31 31 28 102 -6 129 -26 21 -34 21 -684 21 -650 0 -658 0 -684 -21z"/>
</g>
</svg>
